<svg width="60" height="60" viewBox="0 0 60 60" fill="none" xmlns="http://www.w3.org/2000/svg">
<path d="M44.045 14.9207L47.6775 11.2882L51.2125 14.8232L47.58 18.4557C51.1694 22.9486 52.9023 28.6454 52.4227 34.376C51.9431 40.1067 49.2875 45.4362 45.0012 49.27C40.715 53.1038 35.1234 55.1509 29.375 54.9909C23.6265 54.8309 18.1575 52.4759 14.0912 48.4095C10.0248 44.3432 7.66982 38.8742 7.50979 33.1258C7.34977 27.3773 9.39688 21.7858 13.2307 17.4995C17.0645 13.2132 22.394 10.5576 28.1247 10.078C33.8553 9.59844 39.5521 11.3313 44.045 14.9207ZM30 50.0007C32.2981 50.0007 34.5738 49.5481 36.697 48.6686C38.8202 47.7891 40.7494 46.5001 42.3744 44.8751C43.9994 43.2501 45.2884 41.3209 46.1679 39.1977C47.0474 37.0745 47.5 34.7989 47.5 32.5007C47.5 30.2026 47.0474 27.927 46.1679 25.8038C45.2884 23.6806 43.9994 21.7514 42.3744 20.1264C40.7494 18.5013 38.8202 17.2123 36.697 16.3328C34.5738 15.4534 32.2981 15.0007 30 15.0007C25.3587 15.0007 20.9075 16.8445 17.6256 20.1264C14.3437 23.4082 12.5 27.8594 12.5 32.5007C12.5 37.142 14.3437 41.5932 17.6256 44.8751C20.9075 48.157 25.3587 50.0007 30 50.0007ZM27.5 20.0007H32.5V35.0007H27.5V20.0007ZM20 2.50073H40V7.50073H20V2.50073Z" fill="#EA5455"/>
</svg>
