<svg width="60" height="60" viewBox="0 0 60 60" fill="none" xmlns="http://www.w3.org/2000/svg">
<path d="M7.49982 7.5H52.4998C53.1628 7.5 53.7987 7.76339 54.2676 8.23223C54.7364 8.70107 54.9998 9.33696 54.9998 10V50C54.9998 50.663 54.7364 51.2989 54.2676 51.7678C53.7987 52.2366 53.1628 52.5 52.4998 52.5H7.49982C6.83677 52.5 6.20089 52.2366 5.73205 51.7678C5.26321 51.2989 4.99982 50.663 4.99982 50V10C4.99982 9.33696 5.26321 8.70107 5.73205 8.23223C6.20089 7.76339 6.83677 7.5 7.49982 7.5ZM9.99981 12.5V47.5H49.9998V12.5H9.99981ZM21.2498 35H34.9998C35.3313 35 35.6493 34.8683 35.8837 34.6339C36.1181 34.3995 36.2498 34.0815 36.2498 33.75C36.2498 33.4185 36.1181 33.1005 35.8837 32.8661C35.6493 32.6317 35.3313 32.5 34.9998 32.5H24.9998C23.3422 32.5 21.7525 31.8415 20.5804 30.6694C19.4083 29.4973 18.7498 27.9076 18.7498 26.25C18.7498 24.5924 19.4083 23.0027 20.5804 21.8306C21.7525 20.6585 23.3422 20 24.9998 20H27.4998V15H32.4998V20H38.7498V25H24.9998C24.6683 25 24.3503 25.1317 24.1159 25.3661C23.8815 25.6005 23.7498 25.9185 23.7498 26.25C23.7498 26.5815 23.8815 26.8995 24.1159 27.1339C24.3503 27.3683 24.6683 27.5 24.9998 27.5H34.9998C36.6574 27.5 38.2471 28.1585 39.4192 29.3306C40.5913 30.5027 41.2498 32.0924 41.2498 33.75C41.2498 35.4076 40.5913 36.9973 39.4192 38.1694C38.2471 39.3415 36.6574 40 34.9998 40H32.4998V45H27.4998V40H21.2498V35Z" fill="#EA5455"/>
</svg>
