<svg width="60" height="60" viewBox="0 0 60 60" fill="none" xmlns="http://www.w3.org/2000/svg">
<path d="M29.9999 55.0001C16.1924 55.0001 4.99994 43.8076 4.99994 30.0001C4.99994 16.1926 16.1924 5.00012 29.9999 5.00012C43.8074 5.00012 54.9999 16.1926 54.9999 30.0001C54.9999 43.8076 43.8074 55.0001 29.9999 55.0001ZM21.2499 35.0001V40.0001H27.4999V45.0001H32.4999V40.0001H34.9999C36.6575 40.0001 38.2473 39.3416 39.4194 38.1695C40.5915 36.9974 41.2499 35.4077 41.2499 33.7501C41.2499 32.0925 40.5915 30.5028 39.4194 29.3307C38.2473 28.1586 36.6575 27.5001 34.9999 27.5001H24.9999C24.6684 27.5001 24.3505 27.3684 24.1161 27.134C23.8816 26.8996 23.7499 26.5816 23.7499 26.2501C23.7499 25.9186 23.8816 25.6007 24.1161 25.3662C24.3505 25.1318 24.6684 25.0001 24.9999 25.0001H38.7499V20.0001H32.4999V15.0001H27.4999V20.0001H24.9999C23.3423 20.0001 21.7526 20.6586 20.5805 21.8307C19.4084 23.0028 18.7499 24.5925 18.7499 26.2501C18.7499 27.9077 19.4084 29.4974 20.5805 30.6695C21.7526 31.8416 23.3423 32.5001 24.9999 32.5001H34.9999C35.3315 32.5001 35.6494 32.6318 35.8838 32.8662C36.1182 33.1007 36.2499 33.4186 36.2499 33.7501C36.2499 34.0816 36.1182 34.3996 35.8838 34.634C35.6494 34.8684 35.3315 35.0001 34.9999 35.0001H21.2499Z" fill="#EA5455"/>
</svg>
