<svg width="60" height="60" viewBox="0 0 60 60" fill="none" xmlns="http://www.w3.org/2000/svg">
<path d="M50 4.99927C51.38 4.99927 52.5 6.11927 52.5 7.49927V16.8918L47.5 21.8918V9.99927H12.5V49.9992H47.5V43.1043L52.5 38.1043V52.4992C52.5 53.8792 51.38 54.9992 50 54.9992H10C8.62 54.9992 7.5 53.8792 7.5 52.4992V7.49927C7.5 6.11927 8.62 4.99927 10 4.99927H50ZM54.445 22.0193L57.98 25.5543L38.535 44.9992L34.995 44.9942L35 41.4643L54.445 22.0193ZM32.5 29.9993V34.9993H20V29.9993H32.5ZM40 19.9993V24.9993H20V19.9993H40Z" fill="#EA5455"/>
</svg>
