<svg width="60" height="60" viewBox="0 0 60 60" fill="none" xmlns="http://www.w3.org/2000/svg">
<path d="M49.845 20.0002H52.5C53.8261 20.0002 55.0979 20.527 56.0355 21.4647C56.9732 22.4024 57.5 23.6742 57.5 25.0002V35.0002C57.5 36.3263 56.9732 37.5981 56.0355 38.5358C55.0979 39.4734 53.8261 40.0002 52.5 40.0002H49.845C49.2355 44.8335 46.8832 49.2782 43.2294 52.5002C39.5756 55.7223 34.8715 57.5002 30 57.5002V52.5002C33.9782 52.5002 37.7936 50.9199 40.6066 48.1068C43.4197 45.2938 45 41.4785 45 37.5002V22.5002C45 18.522 43.4197 14.7067 40.6066 11.8936C37.7936 9.08059 33.9782 7.50024 30 7.50024C26.0218 7.50024 22.2064 9.08059 19.3934 11.8936C16.5804 14.7067 15 18.522 15 22.5002V40.0002H7.5C6.17392 40.0002 4.90215 39.4734 3.96447 38.5358C3.02679 37.5981 2.5 36.3263 2.5 35.0002V25.0002C2.5 23.6742 3.02679 22.4024 3.96447 21.4647C4.90215 20.527 6.17392 20.0002 7.5 20.0002H10.155C10.7651 15.1675 13.1177 10.7234 16.7714 7.50193C20.4252 4.28044 25.1289 2.50293 30 2.50293C34.8711 2.50293 39.5748 4.28044 43.2286 7.50193C46.8823 10.7234 49.2349 15.1675 49.845 20.0002ZM7.5 25.0002V35.0002H10V25.0002H7.5ZM50 25.0002V35.0002H52.5V25.0002H50ZM19.4 39.4627L22.05 35.2227C24.4327 36.7153 27.1884 37.5048 30 37.5002C32.8116 37.5048 35.5673 36.7153 37.95 35.2227L40.6 39.4627C37.4232 41.4531 33.7489 42.506 30 42.5002C26.2511 42.506 22.5769 41.4531 19.4 39.4627Z" fill="#EA5455"/>
</svg>
