<svg width="60" height="60" viewBox="0 0 60 60" fill="none" xmlns="http://www.w3.org/2000/svg">
<path d="M5 13.75V9.9825C5.00458 9.32595 5.26725 8.69754 5.73128 8.23304C6.19531 7.76854 6.82345 7.50524 7.48 7.5H52.52C53.89 7.5 55 8.6125 55 9.9825V50.0175C54.9954 50.6741 54.7327 51.3025 54.2687 51.767C53.8047 52.2315 53.1765 52.4948 52.52 52.5H7.48C6.82203 52.4993 6.19124 52.2375 5.72622 51.772C5.26121 51.3065 5 50.6755 5 50.0175V47.5H50V18.25L30 36.25L5 13.75ZM0 25H12.5V30H0V25ZM0 37.5H20V42.5H0V37.5Z" fill="#EA5455"/>
</svg>
