<svg width="60" height="60" viewBox="0 0 60 60" fill="none" xmlns="http://www.w3.org/2000/svg">
<path d="M38.64 24.1947L38.285 23.8397C36.6119 22.2265 34.5557 21.0659 32.31 20.4672C25.0425 18.5222 18.0625 22.6397 16.08 30.0422C15.9725 30.4422 15.915 30.8922 15.82 32.0197C15.435 36.6947 14.335 40.1822 11.32 43.7197C16.97 45.9397 23.665 47.5047 28.755 47.5047C31.7807 47.501 34.7208 46.5002 37.1205 44.6573C39.5202 42.8144 41.2457 40.232 42.03 37.3097C42.6458 35.0171 42.6572 32.604 42.0631 30.3055C41.469 28.0071 40.2897 25.9018 38.64 24.1947ZM33.225 15.5397L45.5725 5.93725C46.0532 5.5638 46.6536 5.37857 47.2612 5.41631C47.8688 5.45405 48.4417 5.71217 48.8725 6.14225L56.36 13.6272C56.7907 14.0582 57.0493 14.6316 57.087 15.2397C57.1248 15.8479 56.9391 16.4488 56.565 16.9297L46.965 29.2747C47.6419 32.0358 47.6825 34.9145 47.0838 37.6935C46.4852 40.4725 45.2628 43.0792 43.5092 45.3166C41.7555 47.554 39.5164 49.3637 36.9608 50.6089C34.4053 51.8541 31.6002 52.5024 28.7575 52.5047C20 52.5047 8.74997 48.7497 2.49997 44.9997C12.45 37.4997 10.1175 32.9747 11.25 28.7497C13.895 18.8747 23.355 13.1072 33.2225 15.5397H33.225ZM41.7575 20.2372C41.92 20.3947 42.0825 20.5572 42.24 20.7222L45.0775 23.5572L51.265 15.6022L46.9 11.2372L38.945 17.4247L41.7575 20.2372Z" fill="#EA5455"/>
</svg>
